<svg xmlns="http://www.w3.org/2000/svg" width="200" height="200" viewBox="0 0 200 200">
  <g fill="none" fill-rule="evenodd">
    <path fill="#7960c2" d="m99.8225377 0 78.0444023 37.5842035 19.275376 84.4509385-54.008402 67.724395h-86.6227522l-54.00840237-67.724395 19.27537567-84.4509385z" transform="matrix(1 0 0 -1 0 199.645)"/>
    <g stroke="#fff" stroke-linecap="round" stroke-linejoin="round" stroke-width="4.791" transform="translate(49.911 53.904)">
      <path d="m21.4312636 36.9286823h35.2738364c7.7718594.0048162 14.7833089-4.6277772 17.7715879-11.7420142l6.1515185-14.6942102c.5098209-1.2066327 1.3370775-1.2066327 1.8372792 0l3.8958014 9.4336734c11.5431153 7.2302573 14.428894 7.2827196 14.428894 15.4811447.001276 1.6603707-.662987 3.2531701-1.846524 4.427677-1.1835372 1.1745069-2.7892999 1.8344131-4.4637123 1.8344126h-5.713842l-7.2144471 14.307897-6.300617 25.0006655c-.5346434 2.1256291-2.4608802 3.6167141-4.6701521 3.6151287-.9639103-.0025245-1.8872581-.3849757-2.5665889-1.0630828-.6793307-.678107-1.058897-1.5962229-1.0550635-2.5520459.1154311-16.0820763-1.0869767-20.2313664-21.4798137-20.2313664-27.2321327 0-29.7571892 9.1045918-37.23616598 21.5190772-2.61643946 4.3448314-8.51785715 2.0078749-6.95472695-1.8266416 3.10702186-7.6308784 9.77317093-24.1183451 14.05374283-35.9557453-7.32232453-3.6553503-11.60026067-11.4217046-10.74471646-19.506433 0-23.0261757 25.01008306-32.3263088 28.04496046-14.3937445.7647314 4.6071429-5.7715576 6.7676353-7.0605388 2.8901952-4.0112326-11.83263084-20.55636447 13.7117347-4.1507119 23.4554126z"/>
      <path d="M38.2649734 61.3522626l1.9238525 20.2790595c.1221373 1.3294934-.740613 2.5524712-2.0419555 2.8945412-1.3013425.3420701-2.661738-.296533-3.2197812-1.5114445l-9.0276781-19.6161269M77.6173772 71.6110248l7.3154493 10.8978483c2.7414899 4.0777507 8.1763733 1.7121784 6.6084335-1.8314108-.9907841-2.2511092-2.4048157-5.7946983-9.9896044-24.6620453M85.2358333 28.5824091c.6640715 0 1.2024078.5338219 1.2024078 1.1923247M84.0334254 29.7747338c0-.6585028.5383364-1.1923247 1.2024079-1.1923247M85.2358333 30.9670586c-.6640715 0-1.2024079-.533822-1.2024079-1.1923248M86.4382411 29.7747338c0 .6585028-.5383363 1.1923248-1.2024078 1.1923248"/>
    </g>
  </g>
</svg>
