<svg xmlns="http://www.w3.org/2000/svg" width="462" height="94" viewBox="0 0 462 94">
  <g fill="none" fill-rule="evenodd" transform="translate(3 3)">
    <g stroke="#3e4145" stroke-linecap="round" stroke-linejoin="round" stroke-width="5" transform="translate(.083 .25)">
      <path d="m21.3639205 37.5357639h36.8089015c8.1100791.0050257 15.4266566-4.8291713 18.544981-12.2530093l6.4192235-15.33368053c.5320076-1.25914351 1.3952652-1.25914351 1.9172349 0l4.0653409 9.84421293c12.0454547 7.5449074 15.0568177 7.5996528 15.0568177 16.1548611.001332 1.7326276-.691839 3.3947433-1.926882 4.620363s-2.9106857 1.914244-4.657966 1.9142435h-5.9625l-7.5284091 14.9305556-6.5748106 26.0886574c-.5579103 2.2181333-2.567974 3.7741081-4.8733902 3.7724537-1.0058582-.0026343-1.9693888-.4017293-2.678283-1.1093465-.7088942-.7076173-1.1049787-1.6656882-1.1009783-2.6631072.1204545-16.7819445-1.1342803-21.1118056-22.4145834-21.1118056-28.4172348 0-31.052178 9.5008102-38.85662876 22.4555556-2.73030303 4.533912-8.88854167 2.0952546-7.25738637-1.9061343 3.24223485-7.9629629 10.19848483-25.1679398 14.66534093-37.5204861-7.64098127-3.8144257-12.10508686-11.9187602-11.21231062-20.3553241 0-24.02824069 26.09848482-33.7331018 29.26543562-15.0201388.7980113 4.8076388-6.0227273 7.0621527-7.367803 3.0159722-4.1857955-12.34756946-21.45094702 14.3084491-4.3313447 24.4761574z"/>
      <path d="M38.9302083 63.0222222l2.0075758 21.1615741c.1274525 1.387351-.7728434 2.6635509-2.1308184 3.0205074-1.3579751.3569564-2.777573-.3094378-3.3599013-1.5772204l-9.4205492-20.4697916M79.9951705 73.7274306l7.6338068 11.3721064c2.8607954 4.2552084 8.5321969 1.7866899 6.8960227-1.9111111-1.0339015-2.349074-2.5094697-6.046875-10.4243371-25.7353009M87.9451705 28.8262731c.6929709 0 1.2547348.5570532 1.2547348 1.244213M86.6904356 30.0704861c0-.6871598.5617639-1.244213 1.2547349-1.244213M87.9451705 31.3146991c-.692971 0-1.2547349-.5570531-1.2547349-1.244213M89.1999053 30.0704861c0 .6871599-.5617639 1.244213-1.2547348 1.244213"/>
    </g>
    <g fill="#3e4145">
      <path d="m139.46584 81.3738v8.6262h-1.789245v-21.1800122h7.215169c2.201413 0 3.939728.5624672 5.214996 1.6874185s1.912893 2.6717362 1.912893 4.640401c0 1.9880606-.613381 3.5227233-1.840159 4.6040343-1.226779 1.081311-3.003885 1.6219584-5.33137 1.6219584zm0-1.5128581h5.425924c1.735916 0 3.059654-.4121527 3.971252-1.2364705.911599-.8243177 1.367391-1.9734965 1.367391-3.4475706 0-1.4643763-.453368-2.6305261-1.360117-3.4984842-.90675-.8679581-2.194121-1.3116284-3.862152-1.3310241h-5.542298zm31.397094 4.2039997h-9.615377l-2.182006 5.9350584h-1.876526l8.015238-21.1800122h1.701965l8.015238 21.1800122h-1.861979zm-9.062602-1.5274047h8.49528l-4.24764-11.5355424zm34.146422-12.1901444h-7.258809v19.6526075h-1.789245v-19.6526075h-7.244263v-1.5274047h16.292317zm23.440042 0h-7.258809v19.6526075h-1.789245v-19.6526075h-7.244263v-1.5274047h16.292317zm20.5307 9.4990027h-9.906311v8.6407468h11.390076v1.512858h-13.179321v-21.1800122h13.106587v1.5274047h-11.317342v7.9861447h9.906311zm18.58144 1.3382975h-6.153259v8.8153073h-1.803792v-21.1800122h6.880595c2.2596 0 4.024584.5479206 5.295003 1.6437784 1.270419 1.0958577 1.905619 2.6280961 1.905619 4.5967609 0 1.3576999-.397606 2.5553671-1.19283 3.5930378-.795224 1.0376706-1.861973 1.7553012-3.200277 2.1529133l5.295003 9.0044145v.1891073h-1.905619zm-6.153259-1.5274047h5.484111c1.503167 0 2.710532-.4266993 3.622131-1.2801107.911598-.8534113 1.367391-1.9589503 1.367391-3.3166502 0-1.4934699-.475188-2.6523463-1.425578-3.4766641s-2.283825-1.2364705-4.000346-1.2364705h-5.047709zm38.335875 10.342712h-1.789245l-12.175598-18.1252028v18.1252028h-1.803792v-21.1800122h1.803792l12.190144 18.1397495v-18.1397495h1.774699zm25.263671-1.512858h10.459086v1.512858h-12.262878v-21.1800122h1.803792zm21.490783 1.512858h-1.789246v-21.1800122h1.789246zm11.162617 0v-21.1800122h6.255086c2.269298 0 3.990642.4679145 5.164083 1.4037576 1.17344.9358432 1.760152 2.3153425 1.760152 4.1385395 0 1.0958578-.298205 2.0486579-.894623 2.8584289s-1.41345 1.3892092-2.451121 1.738332c1.231628.27154 2.223219.8776469 2.974803 1.818339.751583.940692 1.12737 2.0268357 1.12737 3.2584634 0 1.8716863-.603683 3.3336162-1.811066 4.3858336s-2.887511 1.5783182-5.040435 1.5783182zm1.789245-10.1826982v8.6698402h5.367737c1.532261 0 2.7469-.3903329 3.643951-1.1710103.897052-.7806774 1.345571-1.8643966 1.345571-3.2511901 0-1.3092106-.429124-2.3444412-1.287384-3.1057229s-2.043805-1.1419169-3.556671-1.1419169zm0-1.4983113h4.887696c1.493469-.0290936 2.649921-.3806356 3.46939-1.0546366s1.229197-1.6558942 1.229197-2.9457091c0-1.3576999-.424274-2.3589885-1.272837-3.003896-.848562-.6449074-2.131084-.9673563-3.847605-.9673563h-4.465841zm29.796956 2.8657022h-6.15326v8.8153073h-1.803792v-21.1800122h6.880595c2.2596 0 4.024584.5479206 5.295003 1.6437784 1.270419 1.0958577 1.905619 2.6280961 1.905619 4.5967609 0 1.3576999-.397606 2.5553671-1.19283 3.5930378-.795224 1.0376706-1.861973 1.7553012-3.200277 2.1529133l5.295003 9.0044145v.1891073h-1.905619zm-6.15326-1.5274047h5.484111c1.503168 0 2.710533-.4266993 3.622131-1.2801107.911598-.8534113 1.367391-1.9589503 1.367391-3.3166502 0-1.4934699-.475188-2.6523463-1.425578-3.4766641s-2.283825-1.2364705-4.000346-1.2364705h-5.047709zm34.000955 4.4076536h-9.615376l-2.182007 5.9350584h-1.876526l8.015238-21.1800122h1.701966l8.015238 21.1800122h-1.861979zm-9.062601-1.5274047h8.495279l-4.247639-11.5355424zm29.564208-1.3528442h-6.15326v8.8153073h-1.803792v-21.1800122h6.880595c2.2596 0 4.024584.5479206 5.295003 1.6437784 1.270419 1.0958577 1.905619 2.6280961 1.905619 4.5967609 0 1.3576999-.397606 2.5553671-1.19283 3.5930378-.795224 1.0376706-1.861973 1.7553012-3.200277 2.1529133l5.295003 9.0044145v.1891073h-1.905619zm-6.15326-1.5274047h5.484111c1.503168 0 2.710533-.4266993 3.622131-1.2801107.911599-.8534113 1.367391-1.9589503 1.367391-3.3166502 0-1.4934699-.475188-2.6523463-1.425578-3.4766641s-2.283825-1.2364705-4.000346-1.2364705h-5.047709zm28.080444.7127889 6.473286-11.5500891h2.065633l-7.65157 13.2084142v7.971598h-1.789246v-7.971598l-7.637023-13.2084142h2.12382z"/>
      <path d="M15.4868158 16.4449871c-.6665072.7405635-1.6415679 1.3371197-2.9252115 1.7896863-1.2836435.4525666-2.69069317.6788466-4.22119122.6788466-2.35334646 0-4.23352688-.7199816-5.64059766-2.1599663-1.40707079-1.4399847-2.15996579-3.4435906-2.2587076-6.0108776l-.01234267-1.55517575c0-1.76912409.31267771-3.31399881.9380425-4.63467051.6253648-1.32067171 1.52019902-2.33687425 2.68452953-3.04863813 1.1643305-.71176388 2.51172457-1.06764048 4.04222261-1.06764048 2.23814771 0 3.97638891.51221546 5.21477571 1.53666173 1.2383869 1.02444627 1.9604255 2.55286427 2.1661377 4.58529985h-4.1718206c-.1481128-1.00387506-.4690188-1.71974244-.9627279-2.14762362-.49370902-.42788117-1.19311968-.64181855-2.09825293-.64181855-1.08615991 0-1.9254527.4607882-2.51790356 1.38237842-.59245085.92159023-.89278602 2.23812794-.9010145 3.94965264v1.0861545c0 1.7938095.30650643 3.1412036.9195285 4.0422226s1.57779736 1.3515217 2.89435482 1.3515217c1.12730233 0 1.96659507-.250965 2.51790357-.7529025v-2.7894422h-3.01161015v-2.9745821h7.34388535zM33.2232247 10.0514869c0 1.7526671-.3250203 3.3037131-.9750705 4.6531845-.6500503 1.3494714-1.5736838 2.3883019-2.7709282 3.1165227-1.1972444.7282209-2.5610952 1.0923259-4.0915933 1.0923259-1.530498 0-2.8881775-.3517625-4.0730792-1.0552979-1.1849018-.7035353-2.1085353-1.7094524-2.7709282-3.0177814-.662393-1.308329-1.0100412-2.8100048-1.0429552-4.5050726v-1.01209844c0-1.76089561.3229632-3.31399869.9688992-4.65935584.645936-1.34535716 1.5716266-2.3841877 2.7770995-3.11652278 1.2054729-.73233509 2.5775521-1.09849714 4.1162786-1.09849714 1.5222696 0 2.8799491.36204787 4.0730793 1.08615447s2.1208778 1.75470878 2.7832708 3.09183745.9976987 2.86966085 1.0059272 4.59764252zm-4.4063312-.75290257c0-1.78558106-.2982781-3.14120348-.8948432-4.06690795-.5965651-.92570446-1.4502575-1.38854975-2.5611029-1.38854975-2.1723198 0-3.3201761 1.62921542-3.4436034 4.88769513l-.0123427 1.32066514c0 1.7608956.2921069 3.1144609.8763292 4.0607366.5842224.9462756 1.4523145 1.4194064 2.6043022 1.4194064 1.0943884 0 1.9377954-.4649024 2.5302462-1.3947211.5924509-.9298187.8927861-2.2669273.9010146-4.011366zM50.4659269 18.6666667h-4.3075899l-6.3688148-11.18245405v11.18245405h-4.3322753v-17.97091951h4.3322753l6.3564722 11.18245401v-11.18245401h4.3199325zM58.0690083 15.3341473h8.5904944v3.3325194h-13.9965815v-2.283393l8.5658092-12.34266444h-8.6151798v-3.34486207h13.9595535v2.2216796zM83.8404917 10.0514869c0 1.7526671-.3250203 3.3037131-.9750705 4.6531845s-1.5736837 2.3883019-2.7709282 3.1165227c-1.1972444.7282209-2.5610952 1.0923259-4.0915932 1.0923259-1.5304981 0-2.8881776-.3517625-4.0730793-1.0552979-1.1849017-.7035353-2.1085352-1.7094524-2.7709282-3.0177814s-1.0100412-2.8100048-1.0429551-4.5050726v-1.01209844c0-1.76089561.3229631-3.31399869.9688991-4.65935584.645936-1.34535716 1.5716266-2.3841877 2.7770995-3.11652278 1.2054729-.73233509 2.5775521-1.09849714 4.1162786-1.09849714 1.5222696 0 2.8799491.36204787 4.0730793 1.08615447s2.1208779 1.75470878 2.7832708 3.09183745c.662393 1.33712867.9976987 2.86966085 1.0059272 4.59764252zm-4.4063312-.75290257c0-1.78558106-.2982781-3.14120348-.8948432-4.06690795-.5965651-.92570446-1.4502575-1.38854975-2.5611029-1.38854975-2.1723198 0-3.3201761 1.62921542-3.4436034 4.88769513l-.0123426 1.32066514c0 1.7608956.2921068 3.1144609.8763291 4.0607366.5842224.9462756 1.4523145 1.4194064 2.6043023 1.4194064 1.0943883 0 1.9377953-.4649024 2.5302462-1.3947211.5924508-.9298187.892786-2.2669273.9010145-4.011366z" transform="translate(136 34)"/>
    </g>
  </g>
</svg>
